<?xml version="1.0" standalone="no"?>
<!DOCTYPE svg PUBLIC "-//W3C//DTD SVG 20010904//EN"
 "http://www.w3.org/TR/2001/REC-SVG-20010904/DTD/svg10.dtd">
<svg version="1.0" xmlns="http://www.w3.org/2000/svg"
 width="128.000000pt" height="128.000000pt" viewBox="0 0 128.000000 128.000000"
 preserveAspectRatio="xMidYMid meet">
<metadata>
Created by potrace 1.14, written by Peter Selinger 2001-2017
</metadata>
<g transform="translate(0.000000,128.000000) scale(0.100000,-0.100000)"
fill="#000000" stroke="none">
<path d="M848 903 c-24 -28 -48 -80 -48 -105 -1 -23 -1 -23 -25 5 -14 15 -25
35 -25 43 0 8 -4 14 -10 14 -10 0 -14 -25 -10 -69 1 -17 -2 -21 -12 -15 -16
10 -59 6 -72 -7 -6 -5 5 -15 27 -24 35 -14 54 -31 22 -19 -19 8 -19 -13 0 -50
19 -36 19 -36 -5 -36 -17 0 -19 -4 -14 -27 4 -16 13 -41 21 -56 15 -30 21
-128 9 -167 -22 -74 -26 -79 -85 -91 -31 -6 -81 -12 -111 -14 -30 -1 -70 -10
-88 -19 -39 -20 -48 -16 -33 13 13 23 17 123 6 141 -4 6 -7 30 -7 52 1 45 -15
95 -26 84 -8 -9 -9 -14 -11 -66 0 -22 -4 -40 -9 -40 -4 0 -38 37 -77 82 -38
45 -71 76 -73 69 -4 -13 32 -106 66 -169 13 -24 29 -63 37 -87 12 -41 11 -50
-12 -112 -13 -37 -40 -100 -59 -140 -19 -40 -34 -77 -34 -83 0 -7 175 -10 536
-10 505 0 535 1 530 18 -10 35 -35 138 -40 167 -3 17 -8 42 -11 56 -3 18 8 55
35 113 35 75 52 146 34 146 -3 0 -19 -13 -37 -30 -39 -36 -49 -38 -41 -5 5 20
2 25 -12 25 -11 1 -30 7 -44 15 -24 15 -24 15 18 12 49 -5 55 10 12 26 -31 12
-40 27 -17 27 7 0 24 8 37 18 l25 17 -50 5 -50 5 47 25 c50 26 50 39 2 45 -16
2 -31 4 -34 4 -3 1 10 10 28 21 58 35 34 46 -53 24 -14 -3 -10 4 15 26 19 16
38 30 42 30 4 0 8 6 8 14 0 16 -58 13 -91 -5 -23 -12 -24 -6 -3 26 20 30 15
54 -6 34 -16 -16 -87 -59 -97 -59 -3 0 7 16 22 35 14 20 25 40 23 46 -4 12
-98 -46 -98 -61 0 -6 -4 -8 -10 -5 -6 3 -2 25 10 55 11 28 16 50 12 50 -13 0
-55 -48 -68 -78 l-12 -27 -1 27 c-1 15 3 38 9 52 11 31 9 32 -12 9z m296 -470
c-29 -70 -31 -78 -29 -162 1 -50 -1 -77 -7 -68 -15 28 -72 55 -129 61 -30 3
-67 10 -82 15 l-27 11 26 39 c33 50 64 71 117 77 47 6 70 21 63 40 -5 12 14
18 67 23 16 1 16 -1 1 -36z"/>
</g>
</svg>
